<?xml version="1.0" encoding="UTF-8"?>
<svg id="Layer_1" data-name="Layer 1" xmlns="http://www.w3.org/2000/svg" viewBox="0 0 800 800">
  <defs>
    <style>
      .cls-1 {
        fill: #000002;
      }
    </style>
  </defs>
  <path id="airplane" class="cls-1" d="M472.5,751.9c-8.1-.6-15.6-6.2-18.1-14.4l-84.4-306.3L61.9,345c-8.1-2.5-13.7-9.4-14.4-18.1-.6-8.8,4.4-16.2,12.5-19.4L725,49.4c2.5-.6,4.4-1.2,6.9-1.2,5,0,10,1.9,13.8,5.6,5.6,5.6,7.5,13.7,4.4,21.2L491.9,739.4c-3.1,7.5-10,12.5-18.1,12.5h-1.3Zm-81.3-355.7c6.9,1.9,11.9,6.9,13.7,13.8l71.9,260L698.1,101.9,129.4,323.1l261.8,73.1h0Z"/>
</svg>