<?xml version="1.0" encoding="UTF-8"?>
<svg id="Layer_1" data-name="Layer 1" xmlns="http://www.w3.org/2000/svg" viewBox="0 0 800 800">
  <defs>
    <style>
      .cls-1 {
        fill: #020000;
      }

      .cls-2 {
        fill: #070701;
      }
    </style>
  </defs>
  <path id="circle" class="cls-2" d="M400,701.2c-84.4,0-163.8-33.1-223.1-92.5s-92.5-138.7-92.5-223.1,33.1-163.8,92.5-223.1,138.7-92.5,223.1-92.5,163.8,33.1,223.1,92.5c123.1,123.1,123.1,323.1,0,446.2-59.3,59.4-138.7,92.5-223.1,92.5h0Zm0-593.7c-74.4,0-144.4,28.8-196.9,81.2s-81.2,122.5-81.2,196.9,28.8,144.4,81.2,196.9,122.5,81.2,196.9,81.2,144.4-28.8,196.9-81.2c108.8-108.8,108.8-285,0-393.8-52.5-52.5-122.5-81.2-196.9-81.2Z"/>
  <path id="delete" class="cls-1" d="M553,257.3l-281,281.1-24.8-24.8L528.3,232.5l24.7,24.8Zm-296.8,8.9l25-24.4,271.9,271.9-25,25L256.2,266.2Z"/>
</svg>