<?xml version="1.0" encoding="UTF-8"?>
<svg id="Layer_1" data-name="Layer 1" xmlns="http://www.w3.org/2000/svg" viewBox="0 0 800 800">
  <path id="home" d="M759.38,406.87c-5,0-9.38-1.88-13.12-5.63L414.38,67.5c-3.75-3.75-8.75-6.25-14.38-6.25-5,0-10,1.88-14.37,6.25L53.75,400c-3.75,3.75-8.13,5.63-13.12,5.63s-9.38-1.88-12.5-5c-3.75-3.12-5.63-6.87-5.63-11.88-.62-5.63,1.87-11.25,5.63-15L358.12,41.25c11.25-11.25,25.62-17.5,41.25-17.5s30,6.25,41.25,17.5l331.87,333.75c3.75,3.75,5.63,8.75,5.63,14.37s-3.12,10.63-6.87,13.75c-3.75,2.5-8.13,3.75-11.88,3.75Zm-261.25,373.13v-26.25h-26.25v-47.5c0-40-32.5-71.88-71.88-71.88s-71.88,32.5-71.88,71.88v47.5h-26.25v26.25H153.75c-31.88,0-57.5-25.62-57.5-57.5V398.13c0-10.63,8.13-18.75,18.75-18.75s18.75,8.12,18.75,18.75v324.38c0,11.25,8.75,20,20,20h136.87v-35.62c0-60.62,49.38-109.38,109.38-109.38s109.38,49.38,109.38,109.38v35.62h136.88c11.25,0,20-8.75,20-20V398.13c0-10.63,8.13-18.75,18.75-18.75s18.75,8.12,18.75,18.75v324.38c0,31.87-25.62,57.5-57.5,57.5h-148.13Z"/>
  <path d="M471.88,780v-37.5h37.5v37.5h-37.5Zm-181.25,0v-37.5h37.5v37.5h-37.5Z"/>
</svg>