<?xml version="1.0" encoding="UTF-8"?>
<svg id="Layer_1" data-name="Layer 1" xmlns="http://www.w3.org/2000/svg" viewBox="0 0 800 800">
  <path id="integral" d="M400.37,385.77c225.88,0,396.2-72.92,396.2-169.67S626.25,46.4,400.37,46.4,4.17,119.35,4.17,216.1s170.32,169.67,396.2,169.67m0-296.53c208.27,0,353.38,66.87,353.38,126.87s-145.12,126.85-353.38,126.85S46.97,276.08,46.97,216.1c.02-60.02,145.13-126.87,353.4-126.87m0,476.32c225.27,0,395.12-72.5,395.12-168.62,0-25.38-12.25-48.98-33.85-70.2-.15-.13-.28-.32-.4-.43-.17-.13-.27-.33-.42-.47l-.1,.12c-3.48-3.18-8.02-5.23-13.08-5.23-10.8,0-19.55,8.75-19.55,19.53,0,5.73,2.55,10.75,6.47,14.28l-.07,.1c13.02,13.08,20.38,29.1,20.38,42.32,0,60.55-145.58,127.97-354.48,127.97S45.9,457.5,45.9,396.95c0-15.07,4.23-27.98,20.87-42.68,.2-.17,.4-.35,.6-.53,.13-.12,.22-.22,.35-.35l-.08-.08c3.2-3.45,5.25-8.02,5.25-13.1,0-10.78-8.73-19.53-19.53-19.53-5.4,0-10.27,2.18-13.8,5.73l-.12-.13c-21.88,21.32-34.2,45.12-34.2,70.67,0,96.12,169.88,168.62,395.13,168.62m361.07-60.3c-.13-.17-.27-.33-.38-.45l-.13,.1c-3.45-3.18-8.02-5.23-13.08-5.23-10.8,0-19.55,8.72-19.55,19.5,0,5.73,2.55,10.77,6.48,14.32l-.1,.07c13.03,13.12,20.4,29.13,20.4,42.32,0,60.55-145.58,127.97-354.48,127.97S46.1,636.42,46.1,575.87c0-15.03,4.25-27.97,20.85-42.65,.22-.2,.4-.35,.6-.55,.13-.1,.23-.23,.35-.33l-.07-.05c3.18-3.48,5.25-8.03,5.25-13.15,0-10.77-8.75-19.5-19.52-19.5-5.38,0-10.27,2.18-13.82,5.73l-.1-.13c-21.88,21.28-34.18,45.08-34.18,70.63,0,96.13,169.87,168.65,395.12,168.65s395.12-72.53,395.12-168.65c0-25.35-12.25-48.98-33.83-70.15-.15-.17-.28-.3-.43-.47"/>
</svg>