<?xml version="1.0" encoding="UTF-8"?>
<svg id="Layer_1" data-name="Layer 1" xmlns="http://www.w3.org/2000/svg" viewBox="0 0 800 800">
  <path id="menu" d="M641.25,400c0,35,28.12,63.12,63.12,63.12s63.12-28.12,63.12-63.12-28.12-63.12-63.12-63.12-63.12,28.12-63.12,63.12Zm-304.37,0c0,35,28.12,63.12,63.12,63.12s63.12-28.12,63.12-63.12-28.12-63.12-63.12-63.12-63.12,28.12-63.12,63.12Zm-305,0c0,35,28.13,63.12,63.13,63.12s63.75-28.12,63.75-63.12-28.12-63.12-63.13-63.12-63.12,28.12-63.75,63.12Z"/>
</svg>