<?xml version="1.0" encoding="UTF-8"?>
<svg id="Layer_1" data-name="Layer 1" xmlns="http://www.w3.org/2000/svg" viewBox="0 0 800 800">
  <path id="mine" d="M241.81,386.03c-1.52,0-2.71,.22-3.65,.59,1.27-.38,2.63-.59,4.03-.59h-.38Zm418.45,166.72c.04-.77,.14-1.53,.3-2.27-.18,.34-.27,1.05-.3,2.27Zm27.91-307.99s0-.07,0-.1v-.36c0,.16,0,.31,0,.46Zm-27.93-.05s0,.06,0,.09c0-.16,0-.34,0-.51v.41Zm16.85,418.91c-3.91-29.19-12.53-57.55-25.54-83.97-2.55-5.17-5.24-10.26-8.1-15.24,0-.02-.02-.03-.03-.05-12.39-20.98-27.59-40.47-45.31-57.86h0c-3.85-3.79-7.82-7.48-11.91-11.05-29.13-25.53-62.77-44.46-98.63-55.98,6.49-3.59,12.77-7.63,18.8-12.09,6.87-5.06,13.41-10.69,19.55-16.84,32.34-32.34,50.15-75.34,50.15-121.07s-17.81-88.73-50.15-121.07c-31.75-31.75-73.78-49.49-118.58-50.13-.71,0-1.42-.02-2.13-.02s-1.42,0-2.13,.02c-44.8,.64-86.83,18.38-118.58,50.13-32.34,32.34-50.15,75.34-50.15,121.07s17.81,88.73,50.15,121.07c6.15,6.15,12.69,11.77,19.55,16.84,6.03,4.46,12.31,8.49,18.8,12.09-35.87,11.52-69.5,30.45-98.63,55.98-4.09,3.58-8.05,7.27-11.91,11.05-17.73,17.41-32.95,36.91-45.35,57.91-2.86,4.98-5.55,10.07-8.1,15.24-13,26.42-21.63,54.78-25.54,83.97-1.26,9.38,5.32,17.99,14.69,19.25,.77,.1,1.55,.16,2.3,.16,.7,0,1.37-.04,2.05-.12,6.77-1.48,12.24-7,13.3-14.26,7.89-54.16,33.7-103.37,70.8-140.84,44.03-44.49,103.96-72.45,168.73-72.56h.37c64.62,.22,124.41,28.16,168.36,72.56,37.1,37.48,62.91,86.69,70.8,140.84,1.06,7.24,6.51,12.76,13.27,14.25,.02,0,.02,0,.04,0,.68,.09,1.36,.12,2.05,.12,.76,0,1.53-.05,2.3-.16,9.37-1.26,15.95-9.88,14.69-19.25h0Zm-272.25-237.16c-.34,0-.69,0-1.03,0-63.91-.47-120.88-44.87-136.45-104.42-.17-.65-.34-1.3-.5-1.96-2.44-9.84-3.73-20.08-3.73-30.59s1.3-20.86,3.73-30.87c.16-.67,.33-1.34,.5-2,15.66-61.05,73.16-109.57,137.48-109.57h.73c64.32,0,121.83,48.52,137.48,109.57,.17,.66,.34,1.33,.5,2,2.44,10.02,3.73,20.37,3.73,30.87s-1.3,20.74-3.73,30.59c-.16,.66-.33,1.31-.5,1.96-15.57,59.55-72.55,103.95-136.45,104.42-.59,0-1.17,0-1.77,0Z"/>
</svg>