<?xml version="1.0" encoding="UTF-8"?>
<svg id="Layer_1" data-name="Layer 1" xmlns="http://www.w3.org/2000/svg" viewBox="0 0 800 800">
  <path id="remember" d="M420.63,795h-5c-62.5-3.12-88.12-56.25-92.5-83.75-1.87-11.25,5.63-21.88,16.88-23.12h3.75c10,0,18.13,6.87,20,16.87,.62,5,10,47.5,54.38,50h3.75c41.87,0,51.88-48.12,51.88-50.62,1.88-9.38,10-16.25,20-16.25,1.25,0,2.5,0,4.37,.62,5,1.25,10,4.37,13.12,8.75s4.37,10,3.12,15c-6.87,28.12-33.75,82.5-93.75,82.5h0Zm-354.38-112.5c-18.75,0-33.75-5.63-43.13-16.25-8.12-9.38-10.63-21.88-10-30v-23.75c-2.5-14.38,3.12-48.12,65.62-106.25,61.25-56.87,99.37-211.88,99.37-323.13,.62-128.75,182.5-145,190-145.62h3.75v-15.62c0-9.38,7.5-16.87,16.88-16.87h16.88c9.38,0,16.87,7.5,16.87,16.87v15.62h7.5c8.13,.62,191.25,15.62,191.25,145,0,110,41.25,266.25,103.12,323.13,62.5,58.13,62.5,90,61.88,108.12v21.25c.62,11.25-.62,21.88-6.87,30-8.75,11.25-22.5,17.5-41.87,17.5H66.25Zm-11.87-43.13c.63,.62,4.37,2.5,11.87,2.5H745l1.25-35v-1.88c0-4.37-3.75-25.62-50-68.13-71.88-67.5-116.25-236.25-116.25-353.75,0-90-150.62-104.38-151.87-104.38h-58.12c-15.62,1.88-150.63,18.12-150.63,104.38,0,103.12-35,281.25-111.87,353.12-47.5,43.75-52.5,66.25-53.12,70.63l.63,1.25-.63,31.25h0Z"/>
</svg>