<?xml version="1.0" encoding="UTF-8"?>
<svg id="Layer_1" data-name="Layer 1" xmlns="http://www.w3.org/2000/svg" viewBox="0 0 800 800">
  <defs>
    <style>
      .cls-1 {
        fill: #08080a;
      }
    </style>
  </defs>
  <path id="star" class="cls-1" d="M626.88,755.63c-5.63,0-11.88-1.25-16.87-3.75l-201.88-100.62-197.5,109.38c-14.37,8.13-32.5,4.37-43.75-7.5-6.88-7.5-10-18.13-8.75-28.75l33.75-223.12L26.25,346.88c-10-9.38-13.75-23.13-9.37-36.25,3.75-13.12,14.37-22.5,28.12-24.38l223.13-37.5L363.12,43.75c5.63-11.88,17.5-20,30.63-20.62,13.75-.62,26.25,6.88,32.5,18.75l104.37,200.62,224.38,27.5c13.75,1.87,24.38,10.63,28.75,23.75,4.37,12.5,1.25,26.87-8.13,36.25l-158.12,161.87,43.13,221.88c1.88,10-.62,20.63-6.87,28.75-6.87,8.13-16.87,13.12-26.88,13.12h0Zm-220-142.5c5.63,0,11.88,1.25,16.87,3.75l199.38,99.38-42.5-218.75c-2.5-11.25,1.25-23.12,9.38-31.25l156.25-158.75-221.25-27.5c-11.25-1.25-21.88-8.75-26.88-18.75L395.62,63.75l-94.37,201.88c-5,10.63-15,18.13-26.25,20l-220,36.25,162.5,151.88c8.75,8.13,12.5,19.37,10.63,31.25l-33.12,220,195-107.5c5.63-2.5,11.25-3.75,16.87-4.37h0Z"/>
</svg>